<svg width="1586" height="1586" viewBox="0 0 1586 1586" fill="none" xmlns="http://www.w3.org/2000/svg">
<g clip-path="url(#clip0_959_2)">
<path d="M778.818 701.991C765.851 698.425 752.56 696.48 738.621 696.48C655.309 696.48 587.558 764.232 587.558 847.544C587.558 930.855 655.309 998.607 738.621 998.607C821.932 998.607 889.684 930.855 889.684 847.544C889.684 833.604 887.739 819.989 884.173 807.346L1304.94 386.574L1373.02 395.651L1586 182.672L1424.89 161.276L1403.49 0.164062L1190.51 213.144L1199.59 281.219L778.818 701.991Z" fill="white"/>
<path d="M754.829 557.412L879.31 432.931C726.626 381.064 550.602 416.074 429.038 537.962C258.201 708.799 258.201 986.289 429.038 1157.13C599.876 1327.96 877.365 1327.96 1048.2 1157.13C1170.09 1035.24 1205.1 859.538 1153.23 706.53L1028.75 831.011C1033.29 910.757 1005.09 992.124 944.144 1053.07C830.685 1166.53 646.556 1166.53 533.097 1053.07C419.638 939.608 419.638 755.48 533.097 642.021C594.041 581.077 675.083 552.874 754.829 557.412Z" fill="white"/>
<path d="M1260.53 599.556C1362.65 814.156 1324.72 1078.35 1147.07 1256C921.452 1481.62 555.789 1481.62 330.167 1256C104.545 1030.38 104.545 664.714 330.167 439.092C507.812 261.447 772.01 223.843 986.61 325.632L1105.58 206.662C823.553 44.9013 457.241 84.45 216.383 325.308C-72.1277 613.819 -72.1277 1081.27 216.383 1369.46C504.894 1657.97 972.347 1657.97 1260.53 1369.46C1501.39 1128.6 1540.94 762.289 1379.18 480.261L1260.53 599.556Z" fill="white"/>
</g>
<defs>
<clipPath id="clip0_959_2">
<rect width="1586" height="1586" fill="white"/>
</clipPath>
</defs>
</svg>
